<?xml version="1.0" encoding="UTF-8"?>
<svg id="Layer_1" data-name="Layer 1" xmlns="http://www.w3.org/2000/svg" viewBox="0 0 307.82 144.13">
  <defs>
    <style>
      .cls-1 {
        fill: #d1d3d4;
      }
    </style>
  </defs>
  <rect class="cls-1" x="120.13" y="57.55" width="4.13" height="28.93"/>
  <rect class="cls-1" x="178.51" y="56.69" width="4.14" height="28.93"/>
  <path class="cls-1" d="M239.6,84.97c-1,1.64-2.44,2.94-4.3,3.92-1.87.98-3.98,1.46-6.33,1.46-5.85,0-10.29-1.85-13.3-5.55-3.02-3.7-4.52-9-4.52-15.89,0-8.09,1.19-14.13,3.57-18.12s6.21-5.99,11.49-5.99c7.07,0,10.6,4.51,10.6,13.52v13.61h4.13v-13.61c0-4.65,1.18-8.06,3.53-10.25,1.81-1.68,3.84-2.71,6.09-3.1-5.41-7.8-14.43-12.9-24.64-12.9h-23.3c1.58,2.09,2.83,5.18,3.75,9.25,1.17,5.19,1.76,12.55,1.76,22.08s-.49,17.05-1.46,22.22c-.98,5.16-2.5,8.72-4.56,10.68-2.07,1.95-4.88,2.92-8.44,2.92-2.64,0-4.81-.53-6.5-1.59-1.7-1.06-3.09-2.91-4.18-5.55-.98,2.41-2.38,4.2-4.22,5.38-1.84,1.17-4.22,1.76-7.15,1.76-3.61,0-6.9-1-9.86-3.01-2.95-2.01-5.31-5.05-7.06-9.13-1.75-4.07-2.62-9.1-2.62-15.07s.87-10.89,2.62-14.94c1.75-4.04,4.09-7.06,7.02-9.04,2.93-1.98,6.23-2.97,9.9-2.97s6.43.89,8.79,2.67c0-4.88.25-8.7.77-11.45.3-1.62.81-3.02,1.54-4.21h-100.01c-10.69,0-20.07,5.59-25.37,14.01,3.02-.85,6.36-1.28,10.01-1.28,5.34,0,9.93.73,13.78,2.2,3.84,1.46,6.74,3.43,8.69,5.9,1.95,2.47,2.93,5.22,2.93,8.26,0,2.7-.95,4.85-2.84,6.46-1.9,1.61-5.28,2.41-10.16,2.41-3.22,0-5.5-.08-6.85-.26-1.35-.17-2.35-.63-3.01-1.37-.66-.75-.99-2.01-.99-3.79v-7.15h-4.14v29.19h4.14v-7.15c0-1.77.33-3.04.99-3.78.66-.75,1.66-1.21,3.01-1.38,1.35-.17,3.63-.26,6.85-.26,4.88,0,8.26.8,10.16,2.41,1.89,1.61,2.84,3.76,2.84,6.46,0,3.04-.99,5.8-2.97,8.26-1.98,2.47-4.88,4.43-8.7,5.86-3.82,1.43-8.39,2.15-13.73,2.15-3.69,0-7.06-.43-10.1-1.31,5.28,8.5,14.71,14.16,25.46,14.16h131.04c-2.31-1.93-3.47-4.49-3.47-7.68s1.04-5.81,3.1-7.45c2.07-1.63,5.14-2.45,9.22-2.45h6.37c3.16,0,5.97-.66,8.44-1.98,2.47-1.32,4.39-3.12,5.77-5.39,1.38-2.26,2.06-4.74,2.06-7.44h-4.13c0,1.89-.5,3.66-1.51,5.29ZM146.48,85.75c-2.01,4.1-5.05,7.37-9.13,9.81-4.07,2.44-9.12,3.66-15.15,3.66s-10.68-1.23-14.81-3.7c-4.14-2.47-7.25-5.77-9.35-9.9-2.09-4.13-3.14-8.67-3.14-13.61s.93-9.54,2.8-13.65c1.87-4.1,4.84-7.39,8.91-9.85,4.08-2.47,9.27-3.71,15.59-3.71s11.16,1.24,15.24,3.71c4.07,2.46,7.1,5.76,9.08,9.9,1.98,4.13,2.97,8.67,2.97,13.6s-1,9.63-3.01,13.74Z"/>
</svg>