<?xml version="1.0" encoding="UTF-8"?>
<svg id="Layer_1" data-name="Layer 1" xmlns="http://www.w3.org/2000/svg" viewBox="0 0 300 300">
  <defs>
    <style>
      .cls-1 {
        fill: #0d0b00;
      }
    </style>
  </defs>
  <path class="cls-1" d="M82.49,142.12v-5.54c0-1.38.26-2.36.77-2.94.51-.58,1.29-.94,2.34-1.07,1.05-.13,2.82-.2,5.31-.2,3.78,0,6.41.62,7.88,1.87,1.47,1.25,2.2,2.92,2.2,5.01,0,2.36-.77,4.5-2.3,6.41-1.54,1.91-3.78,3.43-6.74,4.54-2.96,1.11-6.51,1.67-10.65,1.67-4.68,0-8.68-.9-12.02-2.7-3.34-1.8-5.87-4.3-7.58-7.48-1.71-3.18-2.57-6.82-2.57-10.92s.86-7.68,2.57-10.89,4.24-5.71,7.58-7.51c3.34-1.8,7.35-2.71,12.02-2.71,4.14,0,7.7.57,10.69,1.7,2.98,1.14,5.23,2.66,6.74,4.57,1.51,1.92,2.27,4.05,2.27,6.41,0,2.09-.73,3.76-2.2,5.01-1.47,1.25-4.1,1.87-7.88,1.87-2.49,0-4.26-.07-5.31-.2-1.05-.13-1.83-.49-2.34-1.07-.51-.58-.77-1.56-.77-2.94v-5.54h-3.21v22.64h3.21Z"/>
  <path class="cls-1" d="M224.5,154.39c-3.07,5.1-6.78,8.48-11.12,10.15-4.34,1.67-9.07,2.5-14.19,2.5s-8.73-.78-11.49-2.34c-2.76-1.56-4.14-3.87-4.14-6.95,0-2.58.8-4.51,2.4-5.78,1.6-1.27,3.98-1.9,7.15-1.9h4.94c2.45,0,4.63-.51,6.54-1.54,1.91-1.02,3.41-2.41,4.47-4.17,1.07-1.76,1.6-3.68,1.6-5.78h-3.21c0,1.47-.39,2.84-1.17,4.11-.78,1.27-1.89,2.28-3.34,3.04-1.45.76-3.08,1.14-4.91,1.14-4.54,0-7.98-1.44-10.32-4.31s-3.51-6.98-3.51-12.32c0-6.28.92-10.96,2.77-14.06,1.85-3.09,4.82-4.64,8.92-4.64,5.48,0,8.21,3.5,8.21,10.49v10.55h3.21v-10.55c0-3.61.91-6.25,2.74-7.95,1.83-1.69,3.94-2.54,6.34-2.54,3.47,0,6.46,1.47,8.95,4.41,2.49,2.94,3.74,8.44,3.74,16.5,0,9.53-1.54,16.84-4.61,21.94Z"/>
  <path d="M117.68,110.58c-11.12,0-20.14,9.02-20.14,20.14s9.02,20.14,20.14,20.14,20.14-9.02,20.14-20.14-9.01-20.14-20.14-20.14ZM112.6,146.28s-9.39-2.13-9.39-15.65c0-15.33,9.39-15,9.39-15v30.65Z"/>
  <path d="M164.74,110.58c-11.12,0-20.14,9.02-20.14,20.14s9.02,20.14,20.14,20.14,20.14-9.02,20.14-20.14-9.01-20.14-20.14-20.14ZM159.66,146.28s-9.39-2.13-9.39-15.65c0-15.33,9.39-15,9.39-15v30.65Z"/>
</svg>