<?xml version="1.0" encoding="UTF-8"?>
<svg id="Layer_1" data-name="Layer 1" xmlns="http://www.w3.org/2000/svg" viewBox="0 0 307.82 144.13">
  <defs>
    <style>
      .cls-1 {
        fill: #0d0b00;
      }

      .cls-2 {
        fill: #fff;
      }
    </style>
  </defs>
  <rect class="cls-2" x="29.36" y="18.44" width="249.1" height="107.24" rx="27.71" ry="27.71"/>
  <g>
    <path class="cls-1" d="M68.92,86.75v-7.15c0-1.78.33-3.04.99-3.79.66-.75,1.66-1.21,3.01-1.38,1.35-.17,3.63-.26,6.85-.26,4.88,0,8.27.8,10.16,2.41,1.89,1.61,2.84,3.76,2.84,6.46,0,3.04-.99,5.8-2.97,8.27-1.98,2.47-4.88,4.42-8.7,5.86-3.82,1.43-8.4,2.15-13.73,2.15-6.03,0-11.19-1.16-15.5-3.49-4.31-2.32-7.56-5.54-9.77-9.64-2.21-4.1-3.31-8.8-3.31-14.08s1.1-9.9,3.31-14.04,5.47-7.36,9.77-9.69c4.31-2.33,9.47-3.49,15.5-3.49,5.34,0,9.93.73,13.78,2.2,3.84,1.46,6.74,3.43,8.7,5.9,1.95,2.47,2.93,5.22,2.93,8.27,0,2.7-.95,4.85-2.84,6.46-1.89,1.61-5.28,2.41-10.16,2.41-3.22,0-5.5-.09-6.85-.26-1.35-.17-2.35-.63-3.01-1.38-.66-.75-.99-2.01-.99-3.79v-7.15h-4.13v29.19h4.13Z"/>
    <path class="cls-1" d="M107.41,95.62c-4.13-2.47-7.25-5.77-9.34-9.9-2.1-4.13-3.14-8.67-3.14-13.6s.93-9.54,2.8-13.65c1.87-4.1,4.84-7.39,8.91-9.86,4.08-2.47,9.27-3.7,15.59-3.7s11.17,1.24,15.24,3.7c4.08,2.47,7.1,5.77,9.08,9.9,1.98,4.13,2.97,8.67,2.97,13.6s-1.01,9.63-3.01,13.73c-2.01,4.1-5.05,7.38-9.13,9.82-4.08,2.44-9.13,3.66-15.16,3.66s-10.68-1.24-14.81-3.7ZM124.29,86.57v-28.93h-4.13v28.93h4.13Z"/>
    <path class="cls-1" d="M206.69,85.71c-.98,5.17-2.5,8.73-4.56,10.68-2.07,1.95-4.88,2.93-8.44,2.93-2.64,0-4.81-.53-6.5-1.59-1.69-1.06-3.09-2.91-4.18-5.55-.98,2.41-2.38,4.21-4.22,5.38-1.84,1.18-4.22,1.77-7.15,1.77-3.62,0-6.9-1-9.86-3.01-2.96-2.01-5.31-5.05-7.06-9.13-1.75-4.08-2.63-9.1-2.63-15.07s.87-10.89,2.63-14.94c1.75-4.05,4.09-7.06,7.02-9.04s6.23-2.97,9.9-2.97,6.43.89,8.78,2.67c0-4.88.26-8.7.78-11.45s1.64-4.89,3.36-6.42c1.72-1.52,4.36-2.28,7.92-2.28s6.54.99,8.78,2.97c2.24,1.98,3.95,5.57,5.12,10.76,1.18,5.2,1.76,12.56,1.76,22.09s-.49,17.05-1.46,22.22ZM182.67,85.71v-28.93h-4.13v28.93h4.13Z"/>
    <path class="cls-1" d="M263.09,100.14c-3.96,6.57-8.74,10.94-14.34,13.09-5.6,2.15-11.7,3.23-18.3,3.23s-11.25-1-14.81-3.01c-3.56-2.01-5.34-4.99-5.34-8.96,0-3.33,1.03-5.81,3.1-7.45,2.07-1.64,5.14-2.45,9.21-2.45h6.37c3.16,0,5.97-.66,8.44-1.98,2.47-1.32,4.39-3.11,5.77-5.38,1.38-2.27,2.07-4.75,2.07-7.45h-4.13c0,1.89-.5,3.66-1.51,5.3-1,1.64-2.44,2.94-4.3,3.92-1.87.98-3.98,1.46-6.33,1.46-5.86,0-10.29-1.85-13.3-5.55s-4.52-9-4.52-15.89c0-8.09,1.19-14.13,3.57-18.13,2.38-3.99,6.21-5.98,11.5-5.98,7.06,0,10.59,4.51,10.59,13.52v13.61h4.13v-13.61c0-4.65,1.18-8.06,3.53-10.25,2.35-2.18,5.08-3.27,8.18-3.27,4.48,0,8.32,1.89,11.54,5.68,3.21,3.79,4.82,10.88,4.82,21.27,0,12.29-1.98,21.71-5.94,28.29Z"/>
  </g>
</svg>